<svg width="16" height="16" viewBox="0 0 16 16" fill="none" xmlns="http://www.w3.org/2000/svg">
<circle cx="8" cy="8" r="8" fill="white"/>
<path d="M8.25374 9.42731C8.81922 9.42731 9.27763 8.96403 9.27763 8.39254C9.27763 7.82104 8.81922 7.35776 8.25374 7.35776C7.68827 7.35776 7.22986 7.82104 7.22986 8.39254C7.22986 8.96403 7.68827 9.42731 8.25374 9.42731Z" fill="#11D7DF"/>
<path d="M14.3499 9.94684C14.0608 9.26551 13.4841 8.81593 12.8342 8.66012C12.3516 8.54445 11.9412 8.2289 11.703 7.79356L10.3895 5.3943C10.1394 4.9374 10.0702 4.392 10.2465 3.9021C10.2483 3.89722 10.2495 3.89198 10.2512 3.8871C10.2596 3.86179 10.2673 3.83648 10.2746 3.81117C10.2767 3.80405 10.2789 3.79692 10.281 3.78961C10.3003 3.72062 10.316 3.65124 10.3282 3.5815C10.3303 3.57025 10.3316 3.55881 10.3335 3.54756C10.3368 3.52656 10.3402 3.50538 10.3428 3.48438C10.346 3.46076 10.3483 3.43713 10.3507 3.41332C10.3515 3.40582 10.3522 3.39851 10.353 3.39101C10.3899 2.97292 10.3083 2.53983 10.0916 2.14404C9.84959 1.70195 9.47783 1.37666 9.04983 1.18805C9.0487 1.18749 9.04758 1.18693 9.04645 1.18655C9.01627 1.17324 8.98571 1.16087 8.95496 1.14905C8.94784 1.14624 8.94072 1.14343 8.93359 1.14061C8.90997 1.1318 8.88616 1.12355 8.86235 1.11568C8.84848 1.11099 8.83479 1.10612 8.82092 1.1018C8.80461 1.09674 8.78811 1.09206 8.77161 1.08737C8.75081 1.08137 8.73 1.07518 8.709 1.06975C8.7 1.0675 8.69082 1.06543 8.68163 1.06318C8.65389 1.05643 8.62595 1.04969 8.59802 1.04406C8.59539 1.0435 8.59277 1.04313 8.59014 1.04256C8.51984 1.0285 8.44916 1.01781 8.37849 1.01088C8.37811 1.01088 8.37755 1.01088 8.37717 1.01069C8.34136 1.00713 8.30556 1.0045 8.26957 1.00263C8.25888 1.00206 8.24819 1.00206 8.2375 1.00188C8.21201 1.00094 8.18632 1 8.16083 1C8.13533 1 8.10965 1.00094 8.08415 1.00188C8.07347 1.00225 8.06278 1.00225 8.05209 1.00263C8.01629 1.00431 7.98029 1.00713 7.94448 1.01069C7.94411 1.01069 7.94355 1.01069 7.94317 1.01088C7.8725 1.01781 7.80181 1.0285 7.73151 1.04256C7.72889 1.04313 7.72626 1.0435 7.72364 1.04406C7.69571 1.04969 7.66778 1.05643 7.64003 1.06318C7.63084 1.06543 7.62184 1.06731 7.61266 1.06975C7.59166 1.07518 7.57085 1.08137 7.55004 1.08737C7.53354 1.09206 7.51704 1.09674 7.50073 1.1018C7.48686 1.10612 7.47317 1.11099 7.4593 1.11568C7.43549 1.12374 7.41169 1.1318 7.38806 1.14061C7.38094 1.14324 7.37381 1.14624 7.36669 1.14905C7.33594 1.16087 7.30539 1.17343 7.2752 1.18655C7.27408 1.18712 7.27295 1.18768 7.27183 1.18805C6.84382 1.37666 6.47207 1.70195 6.23004 2.14404C6.01332 2.53983 5.93177 2.97292 5.9687 3.39101C5.96926 3.39851 5.9702 3.40582 5.97095 3.41332C5.9732 3.43695 5.97563 3.46076 5.97882 3.48438C5.98145 3.50538 5.98501 3.52656 5.9882 3.54756C5.99007 3.55881 5.99138 3.57025 5.99344 3.5815C6.00563 3.65124 6.02138 3.72062 6.04069 3.78961C6.04275 3.79674 6.045 3.80386 6.04706 3.81117C6.05437 3.83648 6.06206 3.86198 6.0705 3.8871C6.07218 3.89216 6.0735 3.89722 6.07518 3.9021C6.2516 4.39219 6.18223 4.93759 5.93233 5.3943L4.61889 7.79356C4.38061 8.2289 3.97005 8.54445 3.48749 8.66012C2.83752 8.81593 2.26085 9.26551 1.97176 9.94684C1.55801 10.9225 1.91346 12.0718 2.80415 12.6461C3.88999 13.3461 5.32116 12.9689 5.93045 11.8558C6.23716 11.2956 6.27428 10.6608 6.08606 10.0996C5.92577 9.62192 5.68747 9.10071 5.9295 8.65862L7.22142 6.0025C7.48632 5.5246 8.89076 5.5246 9.15566 6.0025L10.6608 8.545C10.9028 8.98709 10.3961 9.62192 10.2358 10.0996C10.0474 10.6608 10.0847 11.2956 10.3914 11.8558C11.0007 12.9689 12.4317 13.3461 13.5177 12.6461C14.408 12.0718 14.7636 10.9223 14.3499 9.94684Z" fill="#215675"/>
</svg>
